# Blender v2.76 (sub 0) OBJ File: ''
# www.blender.org
mtllib fixed nose back and horn.mtl
o Bull_Head_Seperate_Head
v -87.154305 -57.247097 -2.825089
v -84.500412 -45.060314 2.472242
v -120.175980 -50.155499 -1.936726
v -105.568008 -39.047802 -3.347164
v -92.342865 -35.397038 -8.463982
v 23.231293 -72.599518 -44.211357
v 16.492273 -60.477833 -41.155815
v 12.388357 -69.401642 -46.330399
v 6.327817 -68.769623 -57.181873
v 23.150471 -49.976551 -42.392563
v -18.854698 -53.179684 -0.372086
v 15.414302 -46.759090 -6.514424
v -21.973267 -37.296185 -1.051838
v 15.822322 -59.641384 -12.724380
v -7.856919 -55.823742 -16.799934
v 8.641982 -52.772137 -24.137432
v 4.490943 -40.275814 -6.677372
v -0.722638 -41.580776 -14.832322
v -23.244846 -43.299999 -20.327797
v -15.481870 -59.562588 -8.197327
v -28.755184 -56.487514 -21.863583
v 29.076672 -50.334591 -26.773033
v 24.640034 -54.520489 -16.742403
v -122.932251 -59.205135 -13.734625
v -133.044891 -45.413624 -18.297615
v -134.066132 -47.777920 -36.087688
v -137.591095 -55.854092 -23.354477
v -86.688530 -42.134274 -18.990499
v -103.029312 -49.654507 -18.628191
v -109.456436 -42.054577 -14.781282
v -133.579330 -60.168209 -26.936577
v -114.609573 -74.874161 -51.889233
v -122.378754 -57.690975 -39.845917
v -126.390106 -47.742947 -31.499281
v -120.021851 -55.894039 -23.858326
v -87.998634 -56.447002 -17.235609
v -113.246567 -64.841599 -53.977737
v -130.308701 -58.178616 -49.859833
v -92.941467 -35.586498 7.780773
v -86.043327 21.865429 -9.208384
v -86.837425 21.097948 9.331203
v -63.878323 43.216415 -10.553190
v -53.604733 63.096283 3.974659
v -54.046215 76.731400 23.950268
v -102.632507 19.133423 27.284622
v -103.582062 60.711826 49.728848
v -51.326569 81.938248 24.111668
v -47.205830 82.585388 33.432819
v -88.967369 9.881535 -1.388531
v -87.738235 -18.202099 -8.371874
v -93.994965 -33.365528 -1.066711
v -92.540207 -22.369026 -7.395966
v -70.295074 92.893997 49.988552
v -58.914913 114.133911 50.580776
v -39.001972 -64.277405 17.885872
v -31.619762 -73.009888 34.269909
v -59.249279 -73.920868 28.981640
v -45.403805 -89.356598 49.232601
v -63.719601 -86.985748 44.055782
v -15.089601 -33.798397 10.850971
v -39.876587 -64.388992 0.313675
v -17.083199 -31.923756 -15.478450
v -19.187275 -19.206409 -15.912798
v -15.570546 -33.363880 -1.136211
v -35.087231 -70.133286 -12.084478
v -16.845730 -24.645054 -3.691109
v -22.498558 -24.933483 -33.434818
v -40.536472 -60.368603 -29.953568
v -59.481197 -65.780869 8.400192
v -88.029831 -1.598656 -34.416382
v -65.474609 -13.532742 -67.296043
v -78.789619 -26.941166 -51.288113
v -78.367188 -35.753719 -50.250393
v -61.657299 -45.098095 -40.645676
v -76.201172 -51.190182 -30.142471
v -72.371376 15.694471 -64.054314
v -90.014000 -24.997486 -23.880459
v -21.212128 -15.798061 -3.326664
v -19.249947 -21.509933 -0.296652
v -58.516972 38.530575 -49.645893
v -58.559376 41.286877 -35.629005
v -58.410000 57.061317 -41.877846
v -72.450348 26.093067 -50.111969
v -51.314098 60.733665 -9.828533
v -55.840450 56.275856 -23.251827
v -57.503933 -31.749523 -58.742535
v -37.676498 -46.528942 -38.523270
v -30.736996 -36.413990 -49.843533
v -67.805054 13.378429 -101.485245
v -69.910713 11.714460 -87.129303
v -71.402031 30.923061 -93.147598
v -55.541836 58.251682 -63.972969
v -62.012989 31.397358 -100.799683
v -46.658451 35.068676 -96.533859
v -39.698399 36.040382 -83.487305
v -69.553848 36.256134 -84.217651
v -54.726475 -12.202656 -73.410141
v -75.423004 -69.035568 -8.803598
v -73.770660 -68.301407 -18.613665
v -45.270161 -12.917698 -67.763893
v -28.272511 -20.365223 -42.861160
v -80.283760 -67.877960 32.243973
v -73.380768 -59.397549 15.668694
v -8.224561 16.797813 24.839130
v 9.221914 21.292282 49.574940
v -4.836102 4.400467 26.267246
v -10.471902 43.251579 35.821060
v -116.419792 -25.171459 9.324020
v -94.736267 -20.720917 9.439960
v -113.435516 -5.199028 -0.841112
v -92.971542 -23.223370 4.449297
v -117.146973 -35.752384 -3.800400
v -132.511810 -13.295731 3.826763
v -60.370167 35.151405 -98.612259
v -54.270473 42.079155 -87.576752
v -49.227188 29.748301 -104.048065
v -60.478840 41.502872 -72.701790
v -37.840633 32.875359 -90.748337
v -39.027248 1.221031 -64.615425
v -39.750156 12.058002 -97.556931
v -51.955551 56.000626 -53.196690
v -50.167862 54.245979 -33.143745
v -35.744537 22.520168 -51.437344
v -22.978168 21.621748 -13.877594
v -25.815464 9.488264 -43.475368
v -49.587196 35.637066 -47.812180
v -48.065750 41.730610 -21.341072
v -48.781628 40.891075 -75.709648
v -101.680801 -29.713718 4.527618
v -48.134426 50.002666 3.098597
v -40.462475 54.465199 22.154366
v -23.502769 29.627815 18.019989
v -47.461319 65.587997 12.617104
v -5.543809 -8.147350 -2.169527
v -5.523976 -19.046955 10.739838
v 15.789768 -9.358738 1.459396
v -25.954746 80.922569 50.860432
v 4.272975 54.205219 50.879063
v -94.859543 -33.626659 25.627350
v -20.392162 -69.106522 50.795162
v -120.230408 27.002293 50.916759
v 23.193142 -19.290821 3.752596
v -103.739471 -25.012295 50.755749
v -80.487396 -79.770569 50.860271
v -13.080792 -30.050900 25.829170
v -23.037334 17.629070 -1.825998
v -13.479867 -23.000797 6.060783
v -15.274438 -14.922131 12.479801
v 5.802448 -37.283779 -4.294865
v -2.553147 -30.900997 2.974049
v -106.200485 -1.776035 31.977711
vn -0.058400 -0.387200 0.920100
vn -0.162200 0.331300 0.929500
vn 0.039300 0.762600 0.645700
vn -0.284100 -0.379800 0.880400
vn -0.864600 0.113800 0.489500
vn -0.808600 0.540100 0.233400
vn 0.616700 0.065300 -0.784500
vn -0.301300 -0.946800 0.113200
vn 0.162500 0.074000 0.983900
vn 0.235400 -0.416000 0.878400
vn -0.056300 -0.870700 -0.488600
vn 0.233700 0.415800 0.879000
vn 0.483000 0.762300 -0.430800
vn -0.000300 0.954800 -0.297400
vn 0.067600 0.977500 -0.199700
vn -0.433900 0.333000 -0.837200
vn 0.092500 -0.751700 0.653000
vn 0.106400 -0.942900 -0.315500
vn 0.235000 0.015000 -0.971900
vn 0.235900 0.016100 -0.971700
vn -0.066900 -0.892000 -0.447000
vn -0.743800 0.409300 -0.528400
vn 0.934700 0.031800 -0.353900
vn 0.432400 -0.884000 -0.177600
vn -0.876300 -0.434900 -0.207300
vn -0.757900 -0.646500 0.087700
vn 0.499300 0.845900 0.187400
vn 0.309000 0.946200 -0.095600
vn 0.768900 -0.507000 0.389600
vn 0.548800 -0.348800 0.759700
vn -0.726200 0.465600 -0.505900
vn 0.811300 0.317100 0.491200
vn -0.148100 -0.767700 0.623500
vn -0.916800 0.399400 -0.000500
vn -0.170700 0.326200 -0.929700
vn -0.313500 0.939100 -0.140300
vn 0.761000 -0.104600 0.640200
vn -0.103500 0.811600 -0.575000
vn -0.527500 -0.610100 0.591200
vn -0.111400 0.969800 -0.217100
vn 0.388200 -0.903100 -0.183800
vn 0.080100 0.503200 -0.860400
vn -0.464800 0.682900 0.563600
vn 0.272400 0.843900 -0.462100
vn 0.072600 -0.995600 -0.059500
vn 0.278800 0.835900 -0.472800
vn 0.715000 -0.091200 -0.693200
vn -0.780200 0.037300 0.624500
vn 0.839700 -0.001000 0.543100
vn 0.180100 0.808000 -0.561000
vn 0.336200 -0.919400 -0.204100
vn -0.067100 -0.340700 -0.937800
vn -0.964200 0.002800 -0.265200
vn 0.778800 -0.188100 0.598400
vn 0.850100 0.494600 -0.180900
vn -0.458100 -0.780000 0.426300
vn -0.289300 -0.157300 -0.944200
vn 0.286500 -0.955800 0.065200
vn 0.035500 -0.124800 -0.991500
vn -0.786600 -0.595400 -0.163900
vn -0.728700 -0.665500 -0.161700
vn -0.161100 0.979500 -0.120900
vn -0.756000 -0.653700 -0.035500
vn -0.693800 0.720200 0.000100
vn -0.774900 0.581500 -0.247800
vn -0.521400 0.396100 -0.755800
vn -0.746700 0.541600 -0.386200
vn 0.837600 -0.427000 -0.340700
vn -0.664600 0.530100 -0.526700
vn -0.975700 0.216700 -0.032800
vn -0.942800 -0.118700 0.311600
vn -0.975800 0.003200 -0.218800
vn -0.837300 -0.545400 -0.037200
vn -0.519200 0.542300 -0.660600
vn -0.668200 0.369000 -0.646000
vn 0.780800 0.496200 -0.379600
vn 0.125700 -0.850900 -0.510100
vn 0.151000 -0.733700 -0.662500
vn 0.081500 -0.765000 -0.638800
vn 0.789200 -0.536600 -0.298700
vn 0.983300 0.159700 -0.087700
vn 0.242700 -0.697900 0.673800
vn 0.984400 0.102000 -0.143200
vn 0.961100 0.151100 -0.231000
vn 0.522100 -0.851300 -0.051800
vn 0.417700 -0.752100 0.509800
vn 0.516900 -0.844600 -0.139300
vn 0.603900 -0.415600 -0.680100
vn 0.481600 -0.698900 -0.528800
vn 0.782300 -0.621900 -0.035000
vn 0.233000 -0.903400 -0.359900
vn 0.856000 -0.506900 0.101400
vn 0.008900 0.044500 0.999000
vn -0.803800 0.097600 -0.586800
vn -0.099900 -0.794400 -0.599100
vn -0.839500 -0.139800 -0.525100
vn -0.923900 -0.089200 -0.372100
vn -0.883400 -0.412800 -0.221800
vn -0.804600 -0.302000 -0.511300
vn -0.924000 -0.088100 -0.372200
vn 0.896900 0.441600 0.024700
vn 0.876400 0.423100 0.230000
vn -1.000000 0.007700 -0.004500
vn -0.900400 0.346300 -0.263400
vn -0.811500 0.578700 0.081500
vn -0.786500 0.573600 -0.228700
vn 0.004400 -0.805200 -0.592900
vn 0.078200 -0.766700 -0.637200
vn -0.690100 0.706600 -0.156300
vn -0.243400 -0.497500 -0.832600
vn -0.713900 -0.115500 -0.690600
vn -0.655900 0.740300 -0.147600
vn -0.979400 -0.125600 -0.158200
vn -0.972800 -0.222300 -0.065400
vn -0.990400 0.058300 -0.125400
vn -0.990700 -0.104400 -0.087600
vn -0.672400 0.569700 -0.472700
vn 0.483600 0.748700 -0.453300
vn -0.371700 -0.522800 -0.767100
vn -0.010800 -0.980600 0.195500
vn 0.819200 -0.573400 -0.010100
vn 0.071900 -0.997400 0.002800
vn -0.033600 -0.996200 -0.080200
vn 0.381000 -0.588900 -0.712700
vn 0.866900 0.080900 -0.491800
vn 0.835800 0.106100 -0.538700
vn 0.186400 -0.520300 -0.833400
vn 0.260000 -0.833900 0.486800
vn 0.595000 -0.508400 -0.622500
vn -0.308300 -0.885800 -0.346900
vn 0.778600 -0.258800 -0.571600
vn 0.786400 -0.173200 -0.593000
vn 0.041200 -0.871400 -0.488800
vn -0.568500 -0.611900 -0.549800
vn 0.787500 -0.455700 -0.414900
vn 0.795000 0.149600 -0.587900
vn 0.750700 0.306700 -0.585200
vn -0.099800 0.463100 0.880700
vn 0.500100 0.808300 0.310800
vn -0.503800 -0.714500 -0.485500
vn -0.615900 -0.596300 0.514900
vn 0.027300 0.450200 0.892500
vn 0.136200 0.453600 -0.880700
vn -0.397900 0.859900 -0.319900
vn -0.038500 0.821700 -0.568600
vn -0.644200 0.746300 0.167700
vn 0.996000 -0.076000 -0.046900
vn 0.264500 0.962500 0.060600
vn 0.838300 0.471500 -0.273700
vn 0.916800 -0.373000 -0.142800
vn 0.992400 0.094600 -0.078800
vn -0.995200 0.075600 -0.062000
vn 0.643900 0.736700 -0.206600
vn 0.991400 -0.103300 -0.080100
vn -0.863000 0.041600 -0.503400
vn -0.376600 0.918300 -0.121600
vn 0.648500 0.733700 -0.202900
vn -0.661100 0.734900 0.151000
vn 0.403900 0.909800 -0.095700
vn -0.626900 0.755300 -0.191100
vn 0.435300 0.850400 -0.295600
vn 0.316400 0.944200 0.091900
vn -0.967500 0.227000 0.111600
vn -0.649400 0.285400 0.704800
vn 0.778700 0.238900 -0.580100
vn 0.992600 0.090800 -0.080500
vn 0.090600 0.820200 -0.564900
vn -0.974900 0.209000 0.076900
vn -0.801000 0.559500 -0.213000
vn 0.129000 -0.958100 -0.255900
vn -0.446300 0.873200 0.195700
vn 0.152500 -0.508100 -0.847700
vn -0.596900 0.801500 0.036100
vn -0.651500 0.758000 0.030900
vn -0.120500 -0.267200 -0.956100
vn -0.924700 0.173800 -0.338700
vn 0.269300 0.469800 -0.840700
vn 0.111400 -0.161300 -0.980600
vn -0.231200 0.111100 -0.966500
vn -0.329400 -0.618400 -0.713500
vn 0.290400 -0.759100 -0.582600
vn 0.990200 0.129200 0.052900
vn 0.572300 0.802700 0.167700
vn 0.119800 -0.284800 -0.951100
vn -0.842000 0.422800 -0.335000
vn 0.733400 0.149600 -0.663100
vn -0.622000 0.228400 -0.749000
vn 0.793100 0.521500 -0.314600
vn 0.062300 -0.723100 -0.687900
vn 0.913100 0.403700 0.057700
vn -0.380000 0.826600 -0.415000
vn 0.701000 0.683900 0.202000
vn -0.778800 -0.599800 -0.183700
vn 0.864400 0.465400 -0.190500
vn -0.895400 0.359000 -0.263600
vn -0.988500 -0.002600 -0.151100
vn -0.979500 0.180000 -0.090400
vn -0.909800 -0.267200 -0.317700
vn -0.999100 -0.040100 -0.014400
vn 0.715900 0.558600 -0.419000
vn 0.826500 0.388200 -0.407600
vn 0.975800 0.207700 -0.067600
vn 0.801500 0.476000 0.362000
vn 0.826900 0.373600 -0.420400
vn 0.813200 0.012900 -0.581800
vn 0.921200 0.379000 0.088000
vn -0.218800 -0.901500 0.373300
vn -0.141600 -0.566900 -0.811500
vn -0.094500 -0.790700 -0.604900
vn 0.043100 -0.532400 -0.845400
vn -0.181800 -0.720200 -0.669500
vn -0.066200 0.762400 0.643800
vn 0.425600 0.480900 -0.766600
vn -0.985700 -0.142400 -0.090300
vn 0.615800 0.540300 -0.573500
vn 0.897400 -0.298400 -0.325000
vn 0.852900 0.521700 -0.017400
vn -0.703400 0.325100 -0.632100
vn -0.507300 -0.529900 -0.679600
vn -0.640400 -0.768000 -0.005100
vn -0.665100 0.374400 -0.646100
vn -0.287200 -0.737900 0.610800
vn 0.222300 0.373600 0.900600
vn 0.988800 -0.104700 -0.106400
vn 0.998300 0.053500 0.022600
vn 0.113300 -0.527200 -0.842200
vn -0.761600 -0.645300 -0.059400
vn -0.502800 -0.725900 -0.469300
vn 0.500300 0.490500 -0.713500
vn 0.713800 0.606600 -0.350000
vn 0.354900 0.916600 -0.184100
vn 0.407900 0.758300 -0.508600
vn 0.524600 0.445900 -0.725300
vn -0.743200 -0.417300 -0.523000
vn -0.225800 -0.892700 0.390100
vn 0.722600 -0.419700 -0.549300
vn -0.750900 0.140200 -0.645300
vn 0.370000 -0.653100 0.660700
vn 0.424100 0.422900 -0.800800
vn 0.510900 -0.609100 -0.606600
vn 0.241800 -0.045600 -0.969200
vn 0.998400 0.055000 -0.009800
vn 0.535000 0.200900 -0.820700
vn -0.770500 -0.637300 -0.012800
vn 0.609800 0.347500 -0.712300
vn -0.201000 0.102600 -0.974200
vn -0.970400 -0.092200 -0.223400
vn 0.791500 -0.427400 -0.436800
vn 0.649700 0.720700 -0.242100
vn -0.298600 -0.675600 -0.674100
vn -0.930200 -0.285200 -0.231000
vn 0.910900 0.212300 -0.353900
vn 0.619300 -0.746100 -0.244600
vn 0.232800 -0.143700 0.961800
vn 0.969800 -0.231100 -0.077500
vn -0.387700 0.704000 0.595000
vn 0.594500 0.418100 -0.686900
vn 0.017000 -0.108900 0.993900
vn 0.098900 -0.153300 -0.983200
vn 0.253100 -0.384100 -0.887900
vn -0.237200 0.578400 -0.780500
vn 0.660200 0.128600 -0.740000
vn -0.890700 -0.378700 -0.251700
vn -0.740600 -0.649200 -0.173300
vn -0.625500 -0.067700 -0.777300
vn 0.789200 0.581900 0.196600
vn -0.801600 0.002600 -0.597800
vn 0.792800 0.060100 -0.606500
vn 0.791100 -0.609900 0.046500
vn 0.140600 -0.083700 0.986500
vn -0.734800 -0.015900 -0.678100
vn -0.925400 -0.292600 -0.240800
vn -0.893600 -0.413900 -0.173900
vn 0.054500 -0.408000 0.911400
vn -0.862400 -0.442300 0.246200
vn 0.812300 -0.078700 -0.578000
vn 0.832300 -0.079800 -0.548500
vn 0.859000 -0.284500 -0.425600
vn 0.986000 0.098300 -0.134800
vn 0.987100 0.084900 0.135800
vn 0.979700 0.036900 -0.197200
vn -0.184400 -0.982500 -0.028200
vn 0.472300 0.856300 -0.209000
vn -0.193300 -0.301800 -0.933600
vn 0.509900 0.781100 -0.360300
vn 0.511700 0.814500 -0.273400
vn 0.001700 -0.000900 1.000000
vn -0.967400 0.251400 0.031800
usemtl None
s off
f 1//1 2//1 3//1
f 3//2 2//2 4//2
f 5//3 4//3 2//3
f 6//4 7//4 8//4
f 7//5 9//5 8//5
f 7//6 10//6 9//6
f 10//7 6//7 9//7
f 9//8 6//8 8//8
f 11//9 12//9 13//9
f 11//10 14//10 12//10
f 15//11 16//11 14//11
f 17//12 13//12 12//12
f 16//13 18//13 17//13
f 19//14 13//14 18//14
f 18//15 13//15 17//15
f 15//16 18//16 16//16
f 20//17 14//17 11//17
f 20//18 21//18 15//18
f 15//19 21//19 19//19
f 19//20 18//20 15//20
f 20//21 15//21 14//21
f 16//22 10//22 7//22
f 10//23 22//23 6//23
f 23//24 14//24 22//24
f 16//25 7//25 6//25
f 14//26 16//26 6//26
f 17//27 12//27 22//27
f 10//28 17//28 22//28
f 14//29 6//29 22//29
f 12//30 14//30 23//30
f 16//31 17//31 10//31
f 12//32 23//32 22//32
f 1//33 3//33 24//33
f 25//34 26//34 27//34
f 28//35 29//35 30//35
f 30//36 4//36 5//36
f 31//37 32//37 33//37
f 28//38 30//38 5//38
f 24//39 3//39 27//39
f 34//40 4//40 30//40
f 29//41 24//41 35//41
f 30//42 29//42 35//42
f 4//43 25//43 3//43
f 34//44 26//44 4//44
f 1//45 24//45 36//45
f 37//46 26//46 34//46
f 35//47 34//47 30//47
f 3//48 25//48 27//48
f 33//49 32//49 37//49
f 38//50 26//50 37//50
f 24//51 31//51 35//51
f 36//52 24//52 29//52
f 26//53 38//53 27//53
f 33//54 37//54 34//54
f 35//55 33//55 34//55
f 24//56 27//56 31//56
f 38//57 37//57 32//57
f 35//58 31//58 33//58
f 36//59 29//59 28//59
f 31//60 27//60 38//60
f 31//61 38//61 32//61
f 26//62 25//62 4//62
f 2//63 39//63 5//63
f 40//64 41//64 42//64
f 42//65 41//65 43//65
f 44//66 45//66 46//66
f 43//67 41//67 44//67
f 44//68 47//68 48//68
f 41//69 45//69 44//69
f 40//70 49//70 41//70
f 41//71 49//71 50//71
f 51//72 52//72 5//72
f 39//73 51//73 5//73
f 44//74 46//74 53//74
f 47//75 44//75 53//75
f 47//76 54//76 48//76
f 55//77 56//77 57//77
f 56//78 58//78 57//78
f 57//79 58//79 59//79
f 60//80 61//80 13//80
f 62//81 63//81 64//81
f 65//82 20//82 11//82
f 64//83 63//83 66//83
f 67//84 63//84 62//84
f 13//85 64//85 60//85
f 65//86 11//86 61//86
f 64//87 13//87 62//87
f 68//88 21//88 20//88
f 65//89 68//89 20//89
f 61//90 60//90 55//90
f 55//91 57//91 69//91
f 13//92 19//92 62//92
f 61//93 11//93 13//93
f 70//94 71//94 72//94
f 73//95 74//95 75//95
f 71//96 70//96 76//96
f 70//97 72//97 77//97
f 75//98 77//98 73//98
f 77//99 75//99 28//99
f 73//100 77//100 72//100
f 78//101 66//101 63//101
f 78//102 79//102 66//102
f 80//103 81//103 82//103
f 40//104 83//104 76//104
f 42//105 84//105 85//105
f 42//106 43//106 84//106
f 86//107 87//107 74//107
f 87//108 86//108 88//108
f 42//109 83//109 40//109
f 73//110 71//110 86//110
f 71//111 73//111 72//111
f 80//112 83//112 81//112
f 89//113 90//113 91//113
f 71//114 76//114 90//114
f 92//115 80//115 82//115
f 76//116 91//116 90//116
f 114//117 93//117 96//117
f 116//118 94//118 95//118 118//118
f 86//119 71//119 97//119
f 98//120 65//120 69//120
f 88//121 67//121 87//121
f 61//122 55//122 69//122
f 98//123 99//123 65//123
f 86//124 97//124 100//124
f 88//125 101//125 67//125
f 101//126 88//126 100//126
f 86//127 100//127 88//127
f 69//128 65//128 61//128
f 87//129 21//129 68//129
f 102//130 69//130 57//130
f 87//131 19//131 21//131
f 62//132 19//132 87//132
f 99//133 68//133 65//133
f 103//134 69//134 102//134
f 62//135 87//135 67//135
f 104//136 105//136 106//136
f 104//137 107//137 105//137
f 108//138 109//138 110//138
f 110//139 109//139 50//139
f 111//140 110//140 50//140
f 112//141 108//141 113//141
f 110//142 113//142 108//142
f 94//143 93//143 114//143
f 114//144 96//144 115//144
f 116//145 93//145 94//145
f 117//146 96//146 83//146
f 118//147 119//147 120//147
f 121//148 82//148 122//148
f 123//149 124//149 125//149
f 120//150 119//150 100//150
f 126//151 121//151 127//151
f 76//152 83//152 96//152
f 123//153 126//153 127//153
f 118//154 123//154 119//154
f 122//155 42//155 85//155
f 96//156 117//156 115//156
f 124//157 123//157 127//157
f 83//158 80//158 117//158
f 115//159 128//159 95//159
f 81//160 83//160 42//160
f 95//161 94//161 115//161
f 121//162 92//162 82//162
f 117//163 80//163 92//163
f 81//164 122//164 82//164
f 119//165 123//165 125//165
f 121//166 122//166 127//166
f 114//167 115//167 94//167
f 91//168 76//168 96//168
f 81//169 42//169 122//169
f 39//170 112//170 51//170
f 112//171 129//171 52//171
f 51//172 112//172 52//172
f 111//173 52//173 129//173
f 52//174 111//174 50//174
f 129//175 113//175 110//175
f 41//176 50//176 109//176
f 129//177 112//177 113//177
f 110//178 111//178 129//178
f 116//179 89//179 93//179
f 97//180 71//180 90//180
f 97//181 120//181 100//181
f 128//182 121//182 126//182
f 95//183 128//183 126//183
f 116//184 120//184 89//184
f 115//185 117//185 92//185
f 118//186 120//186 116//186
f 91//187 93//187 89//187
f 128//188 115//188 92//188
f 120//189 97//189 89//189
f 118//190 95//190 123//190
f 96//191 93//191 91//191
f 123//192 95//192 126//192
f 90//193 89//193 97//193
f 128//194 92//194 121//194
f 76//195 70//195 40//195
f 77//196 5//196 52//196
f 70//197 49//197 40//197
f 28//198 5//198 77//198
f 50//199 49//199 70//199
f 130//200 131//200 132//200
f 127//201 85//201 84//201
f 127//202 84//202 130//202
f 127//203 122//203 85//203
f 43//204 131//204 130//204
f 43//205 133//205 131//205
f 84//206 43//206 130//206
f 98//207 69//207 103//207
f 99//208 75//208 68//208
f 74//209 73//209 86//209
f 68//210 74//210 87//210
f 74//211 68//211 75//211
f 134//212 135//212 136//212
f 137//213 138//213 107//213
f 39//214 139//214 45//214
f 54//215 107//215 48//215
f 105//216 140//216 106//216
f 133//217 44//217 131//217
f 141//218 46//218 45//218
f 99//219 36//219 75//219
f 99//220 1//220 36//220
f 53//221 54//221 47//221
f 112//222 39//222 108//222
f 136//223 135//223 142//223
f 104//224 145//224 60//224
f 78//225 124//225 146//225
f 136//226 147//226 134//226
f 39//227 2//227 103//227
f 59//228 144//228 102//228
f 107//229 54//229 137//229
f 146//230 130//230 132//230
f 78//231 148//231 135//231
f 133//232 43//232 44//232
f 48//233 107//233 132//233
f 139//234 103//234 102//234
f 58//235 144//235 59//235
f 145//236 56//236 55//236
f 109//237 45//237 41//237
f 142//238 60//238 149//238
f 132//239 131//239 48//239
f 79//240 134//240 147//240
f 106//241 145//241 104//241
f 78//242 146//242 132//242
f 148//243 132//243 104//243
f 39//244 103//244 139//244
f 132//245 107//245 104//245
f 150//246 147//246 136//246
f 45//247 109//247 39//247
f 145//248 140//248 56//248
f 124//249 127//249 130//249
f 57//250 59//250 102//250
f 143//251 151//251 139//251
f 78//252 132//252 148//252
f 140//253 58//253 56//253
f 135//254 60//254 142//254
f 106//255 140//255 145//255
f 78//256 135//256 134//256
f 131//257 44//257 48//257
f 108//258 39//258 109//258
f 136//259 142//259 150//259
f 79//260 78//260 134//260
f 142//261 149//261 150//261
f 107//262 138//262 105//262
f 102//263 144//263 143//263
f 98//264 1//264 99//264
f 151//265 45//265 139//265
f 146//266 124//266 130//266
f 45//267 151//267 141//267
f 148//268 104//268 60//268
f 60//269 145//269 55//269
f 148//270 60//270 135//270
f 75//271 36//271 28//271
f 151//272 143//272 141//272
f 139//273 102//273 143//273
f 2//274 1//274 98//274
f 2//275 98//275 103//275
f 100//276 125//276 101//276
f 125//277 67//277 101//277
f 100//278 119//278 125//278
f 125//279 124//279 63//279
f 63//280 124//280 78//280
f 125//281 63//281 67//281
f 60//282 64//282 149//282
f 149//283 66//283 150//283
f 64//284 66//284 149//284
f 150//285 66//285 79//285
f 150//286 79//286 147//286
f 143//287 144//287 58//287 140//287 105//287 138//287 137//287 54//287 53//287 46//287 141//287
f 52//288 50//288 70//288 77//288
